<svg width="803" height="210" viewBox="0 0 803 210" fill="none" xmlns="http://www.w3.org/2000/svg">
<g filter="url(#filter0_d_120_43)">
<rect x="4" width="795" height="202" fill="white"/>
</g>
<g clip-path="url(#clip0_120_43)">
<path d="M713.318 18.0138H745.367V23.305H732.653V51.1416H726.296V23.305H713.318V18.0138Z" fill="black"/>
<path d="M660.608 18.0138V23.305H634.918V31.817H655.578V37.1083H634.918V45.8503H660.608V51.1416H628.561V23.305H628.559V18.0138H660.608Z" fill="black"/>
<path d="M676.611 18.0276H668.292L698.09 51.1554H706.433L691.533 34.6029L706.41 18.0529L698.09 18.0644L687.367 29.9759L676.611 18.0276Z" fill="black"/>
<path d="M685.148 41.6909L680.982 37.0576L668.268 51.1807H676.611L685.148 41.6909Z" fill="black"/>
<path fill-rule="evenodd" clip-rule="evenodd" d="M628.784 51.1416L598.946 18H591V51.1278H597.357V25.081L620.798 51.1416H628.784Z" fill="black"/>
<path d="M746.796 50.9392C746.331 50.9392 745.935 50.795 745.603 50.5065C745.271 50.2179 745.107 49.8686 745.112 49.4548C745.107 49.0524 745.271 48.7069 745.603 48.4184C745.935 48.1299 746.331 47.9856 746.796 47.9856C747.244 47.9856 747.636 48.1299 747.967 48.4184C748.304 48.7069 748.471 49.0524 748.476 49.4548C748.471 49.7282 748.394 49.9787 748.239 50.2027C748.079 50.4305 747.877 50.609 747.623 50.738C747.373 50.8709 747.097 50.9392 746.796 50.9392Z" fill="black"/>
<path d="M757.646 36.9835H760.463V46.6911C760.459 47.5832 760.243 48.3463 759.821 48.988C759.395 49.6295 758.805 50.1192 758.047 50.4647C757.293 50.8064 756.41 50.9811 755.406 50.9811C754.489 50.9811 753.666 50.833 752.934 50.5445C752.202 50.256 751.62 49.8232 751.194 49.2537C750.763 48.6842 750.552 47.9743 750.552 47.1239H753.373C753.378 47.4959 753.472 47.8186 753.653 48.0881C753.834 48.3577 754.084 48.5627 754.403 48.707C754.725 48.8512 755.096 48.9234 755.514 48.9234C755.966 48.9234 756.354 48.8398 756.668 48.669C756.982 48.5019 757.224 48.2514 757.392 47.9173C757.555 47.587 757.642 47.177 757.646 46.6911V36.9835Z" fill="black"/>
<path d="M772.054 40.78C771.985 40.1915 771.683 39.7321 771.158 39.4057C770.628 39.0754 769.943 38.9121 769.103 38.9121C768.513 38.9121 768.005 38.9919 767.583 39.1475C767.161 39.3069 766.834 39.5195 766.609 39.7891C766.386 40.0586 766.274 40.3662 766.265 40.7117C766.265 41.0002 766.342 41.2507 766.493 41.4596C766.644 41.6721 766.846 41.8506 767.109 41.9949C767.367 42.1429 767.656 42.2644 767.971 42.3631C768.289 42.4618 768.608 42.5453 768.927 42.6137L770.395 42.9364C770.986 43.0578 771.559 43.2211 772.106 43.4299C772.652 43.6349 773.148 43.8969 773.583 44.212C774.018 44.5271 774.363 44.9067 774.617 45.3509C774.871 45.7951 775 46.3152 775 46.915C775 47.7237 774.767 48.4336 774.298 49.0486C773.828 49.6598 773.152 50.1382 772.265 50.4837C771.382 50.8254 770.314 51 769.056 51C767.841 51 766.782 50.833 765.89 50.4989C764.994 50.1686 764.296 49.6826 763.792 49.0448C763.288 48.4071 763.017 47.6288 762.978 46.7138H765.77C765.808 47.1921 765.981 47.5908 766.274 47.9135C766.571 48.2324 766.958 48.4678 767.432 48.6272C767.91 48.7829 768.444 48.8626 769.035 48.8626C769.651 48.8626 770.193 48.7791 770.662 48.6158C771.128 48.4526 771.494 48.2248 771.757 47.9287C772.024 47.6364 772.157 47.2909 772.162 46.8961C772.157 46.5354 772.036 46.2354 771.804 46.0001C771.567 45.7647 771.24 45.5673 770.822 45.4079C770.4 45.2484 769.909 45.1041 769.349 44.9789L767.566 44.5764C766.278 44.2841 765.257 43.8399 764.512 43.2439C763.762 42.6478 763.392 41.8582 763.392 40.8673C763.392 40.0549 763.642 39.3412 764.146 38.7299C764.645 38.1187 765.33 37.6441 766.196 37.3062C767.066 36.9646 768.048 36.7975 769.142 36.7975C770.253 36.7975 771.227 36.9646 772.067 37.3062C772.906 37.6441 773.566 38.1149 774.044 38.7147C774.522 39.3145 774.772 40.0017 774.785 40.78H772.054Z" fill="black"/>
</g>
<circle cx="156.336" cy="101.336" r="76.3361" fill="#EE384E"/>
<path d="M197.276 92H175.558C175.714 90.151 175.61 88.4844 175.245 87C174.881 85.5156 174.256 84.2396 173.37 83.1719C172.485 82.0781 171.326 81.2448 169.894 80.6719C168.461 80.099 166.756 79.8125 164.776 79.8125C160.974 79.8125 157.576 80.763 154.581 82.6641C151.586 84.5391 149.099 87.2344 147.12 90.75C145.141 94.2396 143.735 98.4062 142.901 103.25C142.172 107.937 142.146 111.831 142.823 114.93C143.526 118.029 144.894 120.346 146.925 121.883C148.982 123.419 151.651 124.187 154.933 124.187C157.12 124.187 159.125 123.927 160.948 123.406C162.797 122.885 164.438 122.143 165.87 121.18C167.328 120.19 168.565 119.018 169.581 117.664C170.623 116.284 171.417 114.76 171.964 113.094H193.839C193.006 116.479 191.521 119.943 189.386 123.484C187.25 127 184.49 130.242 181.104 133.211C177.719 136.154 173.735 138.536 169.151 140.359C164.568 142.182 159.412 143.094 153.683 143.094C146.183 143.094 139.711 141.453 134.269 138.172C128.852 134.891 124.92 130.099 122.472 123.797C120.05 117.495 119.568 109.812 121.026 100.75C122.485 92 125.362 84.6693 129.659 78.7578C133.956 72.8464 139.177 68.3932 145.323 65.3984C151.469 62.4036 158.006 60.9062 164.933 60.9062C170.167 60.9062 174.854 61.5964 178.995 62.9766C183.162 64.3568 186.664 66.375 189.503 69.0312C192.368 71.6615 194.477 74.9036 195.831 78.7578C197.185 82.612 197.667 87.026 197.276 92Z" fill="white"/>
<path d="M311.218 87.7578C311.398 85.2164 310.723 83.2485 309.194 81.854C307.687 80.4596 305.303 79.7624 302.042 79.7624C299.883 79.7624 298.039 80.0436 296.509 80.6058C294.98 81.1456 293.777 81.9103 292.9 82.8999C292.022 83.8669 291.471 84.9915 291.246 86.2734C291.044 87.2855 291.1 88.1851 291.415 88.9723C291.73 89.7595 292.281 90.4567 293.068 91.0639C293.878 91.6712 294.879 92.1997 296.071 92.6495C297.285 93.0993 298.646 93.4929 300.153 93.8303L305.82 95.1797C309.104 95.9219 311.949 96.9115 314.355 98.1484C316.784 99.3629 318.752 100.836 320.259 102.568C321.766 104.277 322.801 106.245 323.363 108.472C323.925 110.698 323.97 113.195 323.498 115.961C322.778 120.324 321.058 124.069 318.336 127.195C315.637 130.321 312.106 132.716 307.743 134.381C303.403 136.045 298.353 136.877 292.596 136.877C286.838 136.877 281.947 136.011 277.921 134.279C273.917 132.525 271.016 129.883 269.217 126.352C267.418 122.821 266.934 118.367 267.766 112.992H283.723C283.476 115.219 283.757 117.074 284.567 118.559C285.399 120.043 286.681 121.167 288.413 121.932C290.144 122.697 292.236 123.079 294.688 123.079C296.937 123.079 298.904 122.776 300.591 122.168C302.301 121.561 303.661 120.718 304.673 119.638C305.708 118.559 306.338 117.322 306.562 115.927C306.787 114.645 306.574 113.532 305.922 112.587C305.292 111.643 304.212 110.822 302.683 110.125C301.176 109.427 299.197 108.798 296.745 108.235L289.83 106.549C284.117 105.154 279.788 102.928 276.841 99.869C273.917 96.8102 272.883 92.6607 273.738 87.4205C274.457 83.1248 276.234 79.3688 279.068 76.1527C281.924 72.9365 285.534 70.4401 289.897 68.6634C294.283 66.8641 299.107 65.9645 304.37 65.9645C309.722 65.9645 314.221 66.8754 317.864 68.6971C321.53 70.4963 324.173 73.0378 325.792 76.3214C327.434 79.5825 327.906 83.3946 327.209 87.7578H311.218ZM350.149 106.447L345.224 136H328.727L340.197 66.9091H356.154L351.768 93.6953H352.342C354.006 90.5017 356.323 88.0052 359.292 86.206C362.26 84.4067 365.701 83.5071 369.615 83.5071C373.213 83.5071 376.227 84.3168 378.656 85.9361C381.085 87.5329 382.805 89.7932 383.817 92.717C384.83 95.6407 385.009 99.0593 384.357 102.973L378.825 136H362.328L367.321 106.211C367.77 103.333 367.399 101.083 366.207 99.4641C365.015 97.8448 363.104 97.0352 360.472 97.0352C358.741 97.0352 357.144 97.4175 355.682 98.1822C354.242 98.9244 353.039 99.9927 352.072 101.387C351.105 102.781 350.464 104.468 350.149 106.447ZM413.176 136.978C407.711 136.978 403.201 135.854 399.648 133.605C396.117 131.356 393.632 128.218 392.192 124.192C390.753 120.167 390.472 115.489 391.349 110.158C392.226 104.851 394.037 100.195 396.78 96.1918C399.524 92.1884 403.033 89.0735 407.306 86.8469C411.579 84.6204 416.426 83.5071 421.846 83.5071C427.289 83.5071 431.776 84.6316 435.307 86.8807C438.86 89.1297 441.357 92.2672 442.796 96.293C444.258 100.319 444.55 105.008 443.673 110.361C442.796 115.669 440.974 120.324 438.208 124.327C435.442 128.308 431.933 131.412 427.682 133.638C423.432 135.865 418.596 136.978 413.176 136.978ZM415.032 124.53C417.056 124.53 418.866 123.923 420.463 122.708C422.082 121.494 423.443 119.796 424.545 117.614C425.647 115.432 426.434 112.902 426.907 110.023C427.379 107.19 427.424 104.704 427.041 102.568C426.682 100.409 425.917 98.7332 424.747 97.5412C423.578 96.3267 421.992 95.7195 419.991 95.7195C417.967 95.7195 416.145 96.3379 414.525 97.5749C412.906 98.7894 411.545 100.487 410.443 102.669C409.364 104.828 408.588 107.358 408.116 110.26C407.643 113.093 407.587 115.579 407.947 117.715C408.307 119.852 409.083 121.527 410.275 122.742C411.467 123.934 413.052 124.53 415.032 124.53ZM444.702 155.432L456.645 84.1818H472.973L471.522 93.0543H472.028C472.928 91.48 474.12 89.9619 475.604 88.5C477.111 87.0381 478.921 85.8461 481.036 84.924C483.15 83.9794 485.567 83.5071 488.289 83.5071C491.887 83.5071 495.092 84.4517 497.904 86.3409C500.715 88.2301 502.761 91.1426 504.043 95.0785C505.325 99.0143 505.46 104.03 504.448 110.125C503.481 115.995 501.727 120.909 499.185 124.867C496.667 128.826 493.675 131.794 490.212 133.773C486.748 135.753 483.116 136.742 479.315 136.742C476.706 136.742 474.502 136.315 472.703 135.46C470.926 134.606 469.52 133.481 468.486 132.087C467.451 130.692 466.732 129.197 466.327 127.6H465.854L461.266 155.432H444.702ZM468.486 110.091C468.036 112.88 468.014 115.309 468.418 117.378C468.823 119.447 469.644 121.055 470.881 122.202C472.141 123.327 473.771 123.889 475.773 123.889C477.797 123.889 479.596 123.327 481.171 122.202C482.767 121.055 484.106 119.447 485.185 117.378C486.265 115.309 487.052 112.88 487.547 110.091C487.974 107.302 487.985 104.884 487.58 102.838C487.198 100.791 486.4 99.2055 485.185 98.081C483.971 96.9564 482.34 96.3942 480.293 96.3942C478.292 96.3942 476.47 96.9452 474.828 98.0472C473.209 99.1493 471.859 100.724 470.78 102.77C469.7 104.817 468.936 107.257 468.486 110.091ZM505.654 155.432L517.597 84.1818H533.925L532.474 93.0543H532.98C533.88 91.48 535.072 89.9619 536.556 88.5C538.063 87.0381 539.874 85.8461 541.988 84.924C544.102 83.9794 546.52 83.5071 549.241 83.5071C552.839 83.5071 556.044 84.4517 558.856 86.3409C561.667 88.2301 563.714 91.1426 564.996 95.0785C566.278 99.0143 566.412 104.03 565.4 110.125C564.433 115.995 562.679 120.909 560.138 124.867C557.619 128.826 554.627 131.794 551.164 133.773C547.7 135.753 544.068 136.742 540.267 136.742C537.658 136.742 535.454 136.315 533.655 135.46C531.878 134.606 530.473 133.481 529.438 132.087C528.403 130.692 527.684 129.197 527.279 127.6H526.807L522.219 155.432H505.654ZM529.438 110.091C528.988 112.88 528.966 115.309 529.371 117.378C529.775 119.447 530.596 121.055 531.833 122.202C533.093 123.327 534.723 123.889 536.725 123.889C538.749 123.889 540.548 123.327 542.123 122.202C543.72 121.055 545.058 119.447 546.137 117.378C547.217 115.309 548.004 112.88 548.499 110.091C548.926 107.302 548.937 104.884 548.532 102.838C548.15 100.791 547.352 99.2055 546.137 98.081C544.923 96.9564 543.292 96.3942 541.246 96.3942C539.244 96.3942 537.422 96.9452 535.78 98.0472C534.161 99.1493 532.812 100.724 531.732 102.77C530.653 104.817 529.888 107.257 529.438 110.091ZM569.744 136L578.38 84.1818H594.877L586.241 136H569.744ZM587.793 78.1094C585.454 78.1094 583.553 77.3335 582.091 75.7816C580.629 74.2298 580.056 72.3743 580.371 70.2152C580.686 68.0336 581.788 66.1781 583.677 64.6488C585.566 63.1194 587.669 62.3548 589.985 62.3548C592.324 62.3548 594.202 63.1194 595.619 64.6488C597.059 66.1781 597.621 68.0336 597.306 70.2152C597.036 72.3743 595.957 74.2298 594.067 75.7816C592.201 77.3335 590.109 78.1094 587.793 78.1094ZM618.264 106.447L613.339 136H596.842L605.479 84.1818H621.166L619.614 93.6953H620.187C621.807 90.5241 624.157 88.0389 627.238 86.2397C630.319 84.418 633.783 83.5071 637.629 83.5071C641.25 83.5071 644.275 84.3168 646.704 85.9361C649.133 87.5554 650.853 89.8269 651.865 92.7507C652.877 95.652 653.046 99.0593 652.371 102.973L646.839 136H630.342L635.301 106.211C635.796 103.355 635.447 101.117 634.255 99.4979C633.086 97.8561 631.174 97.0352 628.52 97.0352C626.788 97.0352 625.203 97.4175 623.763 98.1822C622.346 98.9244 621.154 99.9927 620.187 101.387C619.243 102.781 618.602 104.468 618.264 106.447ZM677.867 156.511C672.919 156.511 668.803 155.825 665.52 154.453C662.236 153.082 659.785 151.204 658.165 148.82C656.546 146.436 655.77 143.737 655.838 140.723L671.626 139.846C671.761 140.925 672.155 141.859 672.807 142.646C673.459 143.433 674.392 144.029 675.607 144.434C676.821 144.861 678.328 145.075 680.127 145.075C682.894 145.075 685.3 144.4 687.347 143.051C689.393 141.701 690.653 139.374 691.125 136.067L692.643 126.959H692.07C691.17 128.556 689.956 129.984 688.426 131.243C686.897 132.503 685.087 133.492 682.995 134.212C680.903 134.932 678.587 135.292 676.045 135.292C672.244 135.292 668.927 134.414 666.093 132.66C663.259 130.883 661.213 128.14 659.953 124.429C658.694 120.695 658.548 115.893 659.515 110.023C660.527 103.973 662.326 98.9918 664.913 95.0785C667.499 91.1426 670.513 88.2301 673.954 86.3409C677.417 84.4517 680.96 83.5071 684.581 83.5071C687.302 83.5071 689.551 83.9794 691.328 84.924C693.104 85.8461 694.499 87.0381 695.511 88.5C696.523 89.9619 697.243 91.48 697.67 93.0543H698.142L699.593 84.1818H716.022L707.386 136.202C706.689 140.611 704.991 144.321 702.292 147.335C699.593 150.349 696.141 152.632 691.935 154.184C687.729 155.735 683.04 156.511 677.867 156.511ZM683.67 123.282C685.671 123.282 687.482 122.753 689.101 121.696C690.72 120.639 692.081 119.121 693.183 117.142C694.285 115.163 695.061 112.79 695.511 110.023C695.961 107.212 695.961 104.794 695.511 102.77C695.084 100.724 694.251 99.1493 693.014 98.0472C691.777 96.9452 690.147 96.3942 688.123 96.3942C686.076 96.3942 684.254 96.9564 682.658 98.081C681.083 99.2055 679.756 100.791 678.677 102.838C677.62 104.862 676.878 107.257 676.45 110.023C676 112.79 675.967 115.163 676.349 117.142C676.754 119.121 677.563 120.639 678.778 121.696C680.015 122.753 681.646 123.282 683.67 123.282Z" fill="#EE384E"/>
<defs>
<filter id="filter0_d_120_43" x="0" y="0" width="803" height="210" filterUnits="userSpaceOnUse" color-interpolation-filters="sRGB">
<feFlood flood-opacity="0" result="BackgroundImageFix"/>
<feColorMatrix in="SourceAlpha" type="matrix" values="0 0 0 0 0 0 0 0 0 0 0 0 0 0 0 0 0 0 127 0" result="hardAlpha"/>
<feOffset dy="4"/>
<feGaussianBlur stdDeviation="2"/>
<feComposite in2="hardAlpha" operator="out"/>
<feColorMatrix type="matrix" values="0 0 0 0 0 0 0 0 0 0 0 0 0 0 0 0 0 0 0.25 0"/>
<feBlend mode="normal" in2="BackgroundImageFix" result="effect1_dropShadow_120_43"/>
<feBlend mode="normal" in="SourceGraphic" in2="effect1_dropShadow_120_43" result="shape"/>
</filter>
<clipPath id="clip0_120_43">
<rect width="184" height="33" fill="white" transform="translate(591 18)"/>
</clipPath>
</defs>
</svg>
